<svg id="Layer_1" data-name="Layer 1" xmlns="http://www.w3.org/2000/svg" viewBox="0 0 28.48 14.12"><defs><style>.cls-1{fill:#fff;}</style></defs><g id="TC_logo" data-name="TC logo"><path class="cls-1" d="M3.94,6.32a4.67,4.67,0,0,1-.78.22,4.24,4.24,0,0,1-.68.07A2.27,2.27,0,0,1,.62,5.84,2.78,2.78,0,0,1,0,4.05c0-.11,0-.23,0-.36a3.6,3.6,0,0,1,0-.36A4.1,4.1,0,0,1,.65,2,3.8,3.8,0,0,1,1.84.83,5.72,5.72,0,0,1,3.24.2,4.75,4.75,0,0,1,4.56,0,5.29,5.29,0,0,1,7,.57a31.29,31.29,0,0,1,3.1,1.25c.65.45,1.23.87,1.75,1.25a2.4,2.4,0,0,0,1.32.56.78.78,0,0,0,.31-.06.82.82,0,0,0,.26-.2.15.15,0,0,0,0-.09,1,1,0,0,0,0-.12,1.24,1.24,0,0,0-.08-.37,2.76,2.76,0,0,0-.24-.44,2.39,2.39,0,0,0-.72-.69,2.25,2.25,0,0,0-1.11-.37V1a2.8,2.8,0,0,1,1.95.81,2.29,2.29,0,0,1,.62,1.53,2.19,2.19,0,0,1-.67,1.59,2.65,2.65,0,0,1-2,.72h-.36a2.46,2.46,0,0,1-.76-.14c-.31-.09-.64-.2-1-.33L9.14,5l-.3-.14c-.3-.12-1.56-.24-1.81-.36l-.56-.26a1.24,1.24,0,0,1,0,.16.92.92,0,0,0,0,.16.85.85,0,0,0,.3.65c.2.19,1.45.36,1.74.52l.2.13L8.87,6a6.19,6.19,0,0,1,1,.73,1.35,1.35,0,0,1,.45,1,1,1,0,0,1,0,.17,1.48,1.48,0,0,1,0,.19,2.64,2.64,0,0,1-.56,1,4.94,4.94,0,0,1-.82.77l-.36.25a2.17,2.17,0,0,1-.34.22l.42.28a7.26,7.26,0,0,0,.77.44c.27.14.56.27.87.4a5.69,5.69,0,0,0,1,.28,1.91,1.91,0,0,0,.33.06l.33,0a2.19,2.19,0,0,0,1.24-.34,2.31,2.31,0,0,0,.9-1.29l.3,0a5.8,5.8,0,0,1-1.92,3.09,4.39,4.39,0,0,1-2.52.83H9.6l-.27,0a16.1,16.1,0,0,1-2.93-.46,13.63,13.63,0,0,1-1.71-.81l-.32-.18a1.67,1.67,0,0,1-.28-.18l-.26-.18c-.09-.07-.2-.13-.31-.2l-.44-.26a4.37,4.37,0,0,0-.49-.23l-.43-.15a1.52,1.52,0,0,0-.42-.06,1,1,0,0,0-.74.32,1.92,1.92,0,0,0-.36,1.22l-.28,0a5.47,5.47,0,0,1,1-2.65A2.62,2.62,0,0,1,3.54,9.16h.13l.06,0h.06a2.89,2.89,0,0,1,.47.08l.49.15.3.11.29.11.87.32a2.11,2.11,0,0,0,.66.14A10.1,10.1,0,0,0,8.12,10a.33.33,0,0,0,.09-.26V9.63c0-.15-1.19-.31-1.46-.49l-.9-.59A7.2,7.2,0,0,1,5,8a1.56,1.56,0,0,1-.51-.7.43.43,0,0,1,0-.11.31.31,0,0,1,0-.1V7s0,0,0-.06a.15.15,0,0,1,0-.07A2.24,2.24,0,0,1,4.9,5.5a5.15,5.15,0,0,1,1-1l.22-.18.23-.16-.07-.05L6.17,4a10.82,10.82,0,0,0-1.08-.55A8.77,8.77,0,0,0,3.84,3c-.21,0-.43-.09-.65-.12a3.48,3.48,0,0,0-.63-.05,2.21,2.21,0,0,0-1.3.37A1.46,1.46,0,0,0,.72,4.54c0,.12,0,.24,0,.36a3,3,0,0,0,.06.4A1.13,1.13,0,0,0,1.44,6a2.66,2.66,0,0,0,1.25.31,3.66,3.66,0,0,0,.57,0,2.58,2.58,0,0,0,.53-.19Z"/><path class="cls-1" d="M22.82,1.86,25.36.21a4.09,4.09,0,0,0,1,1.37,1.56,1.56,0,0,0,.93.37,1.58,1.58,0,0,0,.61-.12l.56-.26v.29A3.08,3.08,0,0,1,27.41,3,2.75,2.75,0,0,1,26,3.44a3.42,3.42,0,0,1-1.37-.31,6,6,0,0,1-1.49-.95,1.21,1.21,0,0,0-.37.38.8.8,0,0,0-.14.45,1.13,1.13,0,0,0,.13.51,3,3,0,0,0,.38.59,21.93,21.93,0,0,1,1.69,2.06,5.53,5.53,0,0,1,.87,1.76,3.69,3.69,0,0,1,.08.46,3.91,3.91,0,0,1,0,.49,2.48,2.48,0,0,1-.92,1.87,3,3,0,0,1-1.94.7H22.8a2.94,2.94,0,0,1-1.91-.85A3.9,3.9,0,0,1,19.83,8l.3,0c0,.17.1.4.17.66a6.57,6.57,0,0,0,.31.83,4.3,4.3,0,0,0,.37.65,2.67,2.67,0,0,0,.5.56.88.88,0,0,0,.29.18,2.13,2.13,0,0,0,.33.11h.21a.66.66,0,0,0,.48-.14.51.51,0,0,0,.2-.45,2.14,2.14,0,0,0-.29-.9,6.43,6.43,0,0,0-1.07-1.35,6.23,6.23,0,0,1-1.2-1.64,3.15,3.15,0,0,1-.33-1.28,2,2,0,0,1,.2-.92,3.31,3.31,0,0,1,.46-.69l.32-.32.25-.22L22.52,2a2.67,2.67,0,0,0-.68-.93A1.33,1.33,0,0,0,21,.74h-.09l-.07,0c-.52.07-1,.57-1.44,1.49a11.79,11.79,0,0,0-.74,4.54q-.06,3.59,1.36,5.1a4.25,4.25,0,0,0,3.16,1.53h.25a5.09,5.09,0,0,0,3-1.27,4.4,4.4,0,0,0,1.59-3l.31,0a4.39,4.39,0,0,1-1.95,3.62A7.25,7.25,0,0,1,22.29,14h-.38l-.38,0a8.2,8.2,0,0,1-4.7-2,6.48,6.48,0,0,1-2.2-5.19,6.5,6.5,0,0,1,1.29-4.24A6.37,6.37,0,0,1,18.77.45q.38-.11.75-.18a4.49,4.49,0,0,1,.73-.06,3.23,3.23,0,0,1,1.63.41,2,2,0,0,1,.94,1.25Z"/></g></svg>